<?xml version="1.0" standalone="no"?>
<!DOCTYPE svg PUBLIC "-//W3C//DTD SVG 1.1//EN" "http://www.w3.org/Graphics/SVG/1.1/DTD/svg11.dtd" >
<svg xmlns="http://www.w3.org/2000/svg" xmlns:xlink="http://www.w3.org/1999/xlink" version="1.1">
<metadata></metadata>
<defs>
<font id="gothic_a1regular" horiz-adv-x="1138" >
<font-face units-per-em="2048" ascent="1634" descent="-414" />
<missing-glyph horiz-adv-x="500" />
<glyph horiz-adv-x="0" />
<glyph horiz-adv-x="682" />
<glyph unicode=" "  horiz-adv-x="500" />
<glyph unicode="&#x09;" horiz-adv-x="500" />
<glyph unicode="&#xa0;" horiz-adv-x="500" />
<glyph unicode="!" horiz-adv-x="632" d="M190 -20v230h252v-230h-252zM228 1500h178l-18 -1084h-142z" />
<glyph unicode="&#x22;" horiz-adv-x="994" d="M136 1094l164 586h222l-260 -586h-126zM546 1094l164 586h222l-260 -586h-126z" />
<glyph unicode="#" horiz-adv-x="1444" d="M98 412v120h260l54 392h-250v118h266l54 406h140l-54 -406h396l54 406h140l-54 -406h244v-118h-260l-50 -392h246v-120h-262l-54 -408h-146l56 408h-392l-54 -408h-146l56 408h-244zM502 532h392l54 392h-396z" />
<glyph unicode="$" horiz-adv-x="1196" d="M126 274l120 60q60 -92 159 -147t199 -55q128 0 213 63t85 191q0 38 -10 71t-23 57t-43 49t-50 40t-68 39t-72 34t-86 35t-88 37q-148 64 -223 150t-75 228q0 132 97 239t267 125v168h146v-170q110 -6 209 -76t137 -156l-120 -58q-118 168 -300 168q-128 0 -203 -69 t-75 -173q0 -62 23 -108t84 -86t106 -60t151 -64q82 -32 137 -62t116 -78t92 -115t31 -151q0 -176 -110 -278t-278 -120v-156h-146v160q-116 8 -229 80t-173 188z" />
<glyph unicode="%" horiz-adv-x="1982" d="M144 1174q0 160 108 260t274 100t274 -100t108 -260t-109 -260t-273 -100t-273 100t-109 260zM292 1174q0 -108 69 -173t165 -65t165 66t69 172q0 108 -67 173t-167 65q-96 0 -165 -65t-69 -173zM372 0l1074 1498h162l-1076 -1498h-160zM1074 326q0 160 108 260t274 100 t274 -100t108 -260q0 -162 -109 -262t-273 -100t-273 101t-109 261zM1222 326q0 -108 69 -173t165 -65t165 66t69 172q0 108 -67 172t-167 64q-98 0 -166 -64t-68 -172z" />
<glyph unicode="&#x26;" horiz-adv-x="1306" d="M122 376q0 296 342 512q-6 10 -20 28q-50 70 -71 104t-39 84t-18 106q0 128 97 218t271 90q266 0 390 -252l-122 -54q-36 70 -107 123t-151 53q-102 0 -160 -53t-58 -131q0 -82 118 -258t402 -546q62 124 92 292l144 -26q-34 -216 -136 -392l210 -274h-184l-118 154 q-176 -190 -424 -190q-218 0 -338 118t-120 294zM282 378q0 -130 85 -206t219 -76q182 0 330 178l-370 502q-118 -82 -191 -176t-73 -222z" />
<glyph unicode="'" horiz-adv-x="614" d="M156 1094l164 586h222l-260 -586h-126z" />
<glyph unicode="(" horiz-adv-x="908" d="M306 718q0 578 348 1018l112 -62q-62 -96 -84 -132t-76 -143t-77 -189t-45 -215t-22 -277q0 -176 25 -323t79 -270t92 -190t108 -173l-112 -62q-154 200 -251 441t-97 577z" />
<glyph unicode=")" horiz-adv-x="908" d="M142 -238q150 220 227 436t77 520q0 172 -24 316t-76 266t-92 194t-112 180l112 62q348 -442 348 -1018q0 -332 -96 -574t-252 -444z" />
<glyph unicode="*" d="M48 850l56 128l404 -156l-16 400h152l-16 -400l404 156l56 -128l-420 -148l312 -346l-116 -86l-296 366l-296 -366l-116 86l312 346z" />
<glyph unicode="+" d="M56 674v136h436v430h152v-430h436v-136h-436v-446h-152v446h-436z" />
<glyph unicode="," horiz-adv-x="704" d="M100 -348l164 586h222l-260 -586h-126z" />
<glyph unicode="-" d="M96 674v136h944v-136h-944z" />
<glyph unicode="." horiz-adv-x="704" d="M226 0v238h252v-238h-252z" />
<glyph unicode="/" horiz-adv-x="688" d="M-26 -114l576 1706h164l-576 -1706h-164z" />
<glyph unicode="0" d="M100 748q0 408 134 597t334 189q220 0 344 -202t124 -584q0 -228 -47 -400t-153 -278t-264 -106q-202 0 -337 194t-135 590zM264 748q0 -300 76 -476t232 -176q84 0 144 53t93 147t48 205t15 247q0 300 -75 478t-229 178q-152 0 -228 -176t-76 -480z" />
<glyph unicode="1" d="M206 1146v122h60q172 0 234 52t62 150v46h136v-1536h-164v1166h-328z" />
<glyph unicode="2" d="M104 1160q44 174 159 274t301 100q192 0 314 -110t122 -304q0 -224 -232 -446q-268 -256 -338 -338q-90 -106 -126 -204h696v-132h-888q0 76 33 159t71 143t126 155t135 140t163 153q196 186 196 372q0 134 -75 208t-201 74q-124 0 -204 -76t-112 -206z" />
<glyph unicode="3" d="M76 258l132 52q112 -214 336 -214q140 0 234 82t94 238q0 146 -104 227t-252 81q-74 0 -120 -4v132q42 -4 112 -4q132 0 218 77t86 209q0 118 -77 194t-199 76q-192 0 -288 -228l-132 44q46 138 154 226t274 88q198 0 315 -110t117 -276q0 -130 -70 -222t-170 -130 q120 -32 210 -128t90 -252q0 -216 -135 -334t-357 -118q-174 0 -295 84t-173 210z" />
<glyph unicode="4" d="M48 338v128l690 1052h144v-1048h216v-132h-216v-358h-160v358h-674zM204 470h518v572q0 126 8 240h-8l-134 -216z" />
<glyph unicode="5" d="M96 242l132 50q44 -90 125 -143t179 -53q150 0 233 98t83 254q0 158 -90 257t-234 99q-164 0 -288 -134l-96 38l76 790h708v-132h-560l-56 -514q118 82 272 82q190 0 311 -131t121 -351q0 -204 -122 -346t-358 -142q-304 0 -436 278z" />
<glyph unicode="6" d="M104 668q0 130 17 250t57 234t100 197t152 134t206 51q264 0 396 -268l-128 -46q-104 184 -268 184q-86 0 -152 -45t-105 -122t-61 -153t-34 -164q-12 -80 -20 -180q40 104 131 168t209 64q196 0 320 -144t124 -360t-123 -360t-333 -144q-222 0 -352 158 q-136 164 -136 546zM276 466q0 -162 85 -266t223 -104q132 0 218 103t86 267q0 168 -87 271t-221 103q-130 0 -217 -108t-87 -266z" />
<glyph unicode="7" d="M84 1362v136h924v-110q-394 -646 -564 -1408h-164q82 396 217 721t327 661h-740z" />
<glyph unicode="8" d="M84 400q0 160 84 260t204 140q-240 100 -240 340q0 166 123 280t313 114q186 0 311 -112t125 -282q0 -132 -70 -218t-170 -122q124 -38 208 -140t84 -262q0 -190 -137 -312t-351 -122q-206 0 -345 118t-139 318zM248 408q0 -136 91 -224t229 -88t231 89t93 223 q0 136 -94 230t-230 94q-134 0 -227 -92t-93 -232zM296 1132q0 -122 79 -196t193 -74q116 0 194 76t78 194t-77 195t-195 77q-122 0 -197 -79t-75 -193z" />
<glyph unicode="9" d="M84 1032q0 222 133 362t331 140q170 0 287 -109t157 -281q28 -124 28 -320q0 -194 -28 -347t-88 -270t-161 -180t-239 -63q-146 0 -253 83t-155 193l132 46q42 -84 115 -137t165 -53q98 0 169 52t110 146t57 204t20 244q-38 -84 -126 -146t-210 -62q-182 0 -313 135 t-131 363zM244 1034q0 -166 91 -268t213 -102q128 0 216 105t88 263q0 156 -85 264t-219 108q-128 0 -216 -103t-88 -267z" />
<glyph unicode=":" horiz-adv-x="704" d="M226 168v238h252v-238h-252zM226 960v238h252v-238h-252z" />
<glyph unicode=";" horiz-adv-x="704" d="M100 -180l164 586h222l-260 -586h-126zM226 960v238h252v-238h-252z" />
<glyph unicode="&#x3c;" d="M108 654v142l844 628l84 -116l-776 -584l776 -584l-84 -116z" />
<glyph unicode="=" d="M96 476v136h944v-136h-944zM96 872v136h944v-136h-944z" />
<glyph unicode="&#x3e;" d="M104 140l772 584l-772 584l80 116l848 -628v-142l-848 -630z" />
<glyph unicode="?" horiz-adv-x="1128" d="M128 1208q52 148 168 237t268 89q190 0 303 -110t113 -294q0 -92 -37 -166t-90 -126t-106 -102t-90 -121t-37 -159v-54h-160v64q0 98 37 177t89 133t104 103t89 114t37 141q0 120 -67 193t-183 73q-200 0 -298 -240zM414 -20v230h252v-230h-252z" />
<glyph unicode="@" horiz-adv-x="1926" d="M118 704q0 374 247 611t641 237q356 0 579 -207t223 -535q0 -150 -35 -265t-93 -179t-122 -96t-134 -32q-90 0 -157 63t-73 157h-2q-32 -82 -117 -150t-197 -68q-144 0 -240 108t-96 288q0 240 125 378t299 138q92 0 151 -41t85 -89l8 112h122l-28 -574q-4 -98 32 -150 t98 -52q104 0 170 117t66 325q0 284 -180 460t-486 176q-326 0 -536 -203t-210 -529q0 -338 201 -534t521 -196q236 0 446 62l26 -108q-214 -70 -472 -70q-392 0 -627 236t-235 610zM688 638q0 -120 57 -196t149 -76q46 0 91 21t91 67t74 139t28 219q0 90 -51 156t-155 66 q-108 0 -196 -107t-88 -289z" />
<glyph unicode="A" horiz-adv-x="1300" d="M-8 0l560 1498h196l560 -1498h-176l-152 432h-660l-152 -432h-176zM368 560h564l-176 504q-16 46 -51 147t-49 141h-12q-84 -246 -98 -288z" />
<glyph unicode="B" horiz-adv-x="1360" d="M208 0v1498h552q218 0 331 -104t113 -280q0 -120 -61 -203t-155 -125q114 -34 193 -132t79 -236q0 -172 -113 -295t-315 -123h-624zM368 136h424q130 0 217 75t87 205q0 124 -85 206t-227 82h-416v-568zM368 838h364q134 0 221 66t87 198q0 116 -71 188t-229 72h-372 v-524z" />
<glyph unicode="C" horiz-adv-x="1324" d="M104 748q0 366 178 576t462 210q176 0 299 -97t185 -231l-136 -48q-134 240 -352 240q-216 0 -344 -177t-128 -473q0 -300 130 -473t342 -173q134 0 234 75t150 185l144 -46q-68 -146 -198 -249t-326 -103q-282 0 -461 209t-179 575z" />
<glyph unicode="D" horiz-adv-x="1402" d="M208 0v1498h404q324 0 510 -191t186 -559q0 -350 -180 -549t-520 -199h-400zM368 136h216q260 0 410 147t150 465q0 322 -150 468t-406 146h-220v-1226z" />
<glyph unicode="E" horiz-adv-x="1240" d="M208 0v1498h936v-136h-776v-520h700v-134h-700v-572h792v-136h-952z" />
<glyph unicode="F" horiz-adv-x="1144" d="M208 0v1498h908v-136h-748v-540h672v-134h-672v-688h-160z" />
<glyph unicode="G" horiz-adv-x="1452" d="M104 748q0 348 175 567t477 219q102 0 190 -31t147 -83t98 -101t65 -103l-136 -48q-142 230 -364 230q-230 0 -359 -179t-129 -471q0 -304 132 -475t348 -171q196 0 302 128t106 302v140h-424v136h580v-808h-116l-12 220q-118 -256 -440 -256q-286 0 -463 210t-177 574z " />
<glyph unicode="H" horiz-adv-x="1472" d="M208 0v1498h160v-660h736v660h160v-1498h-160v704h-736v-704h-160z" />
<glyph unicode="I" horiz-adv-x="574" d="M208 0v1498h160v-1498h-160z" />
<glyph unicode="J" horiz-adv-x="1012" d="M24 240l144 54q28 -90 91 -141t149 -51q236 0 236 334v1062h160v-1088q0 -220 -101 -333t-291 -113q-298 0 -388 276z" />
<glyph unicode="K" horiz-adv-x="1298" d="M208 0v1498h160v-792h4l680 792h212l-568 -648l600 -850h-200l-504 734l-224 -256v-478h-160z" />
<glyph unicode="L" horiz-adv-x="1096" d="M208 0v1498h160v-1362h712v-136h-872z" />
<glyph unicode="M" horiz-adv-x="1786" d="M208 0v1498h208l328 -806q32 -84 87 -229t57 -151h8q12 30 146 380l326 806h212v-1498h-160v846q0 162 20 454h-8l-76 -200l-392 -988h-140l-392 988l-80 200h-8q24 -322 24 -454v-846h-160z" />
<glyph unicode="N" horiz-adv-x="1480" d="M208 0v1498h184l552 -956l180 -316h12q-24 186 -24 424v848h160v-1498h-184l-554 962l-178 308h-8q20 -200 20 -422v-848h-160z" />
<glyph unicode="O" horiz-adv-x="1452" d="M104 748q0 352 170 569t454 217q286 0 453 -216t167 -572q0 -360 -169 -571t-451 -211q-284 0 -454 213t-170 571zM268 748q0 -296 124 -471t336 -175q208 0 332 172t124 472q0 296 -120 474t-336 178q-212 0 -336 -176t-124 -474z" />
<glyph unicode="P" horiz-adv-x="1324" d="M208 0v1498h564q218 0 345 -120t127 -318q0 -204 -130 -322t-342 -118h-404v-620h-160zM368 754h380q158 0 245 77t87 229q0 148 -87 225t-249 77h-376v-608z" />
<glyph unicode="Q" horiz-adv-x="1452" d="M104 746q0 358 171 573t453 215q284 0 452 -216t168 -572q0 -352 -166 -567t-454 -215q-286 0 -455 215t-169 567zM268 746q0 -296 125 -470t335 -174t333 173t123 471q0 308 -124 480t-332 172q-210 0 -335 -175t-125 -477zM696 456l104 94l548 -560l-104 -92z" />
<glyph unicode="R" horiz-adv-x="1352" d="M208 0v1498h584q220 0 338 -119t118 -293q0 -158 -80 -256t-176 -124q84 -44 122 -108t62 -178q26 -112 37 -153t40 -117t71 -150h-180q-34 64 -61 137t-39 120t-36 151q-26 112 -79 176t-169 64h-392v-648h-160zM368 784h404q150 0 231 80t81 212q0 128 -85 207t-243 79 h-388v-578z" />
<glyph unicode="S" horiz-adv-x="1242" d="M80 282l148 52q134 -232 416 -232q156 0 254 76t98 208q0 66 -28 117t-89 89t-113 60t-142 52l-102 34t-95 36t-96 46t-77 55t-67 71t-38 87t-17 109q0 178 136 285t364 107q174 0 303 -80t185 -200l-136 -48q-118 192 -356 192q-156 0 -244 -70t-88 -186q0 -52 24 -97 t53 -72t94 -58t102 -44t121 -41q20 -6 30 -10q98 -32 164 -62t136 -80t105 -121t35 -165q0 -202 -141 -315t-379 -113q-204 0 -346 86t-214 232z" />
<glyph unicode="T" horiz-adv-x="1116" d="M24 1362v136h1072v-136h-456v-1362h-160v1362h-456z" />
<glyph unicode="U" horiz-adv-x="1466" d="M204 542v956h160v-952q0 -224 103 -334t265 -110q166 0 269 113t103 331v952h160v-956q0 -272 -138 -425t-394 -153q-250 0 -389 150t-139 428z" />
<glyph unicode="V" horiz-adv-x="1194" d="M-4 1498h176l326 -1030q16 -52 46 -151t48 -159h8q18 62 48 159t46 151l330 1030h176l-504 -1498h-196z" />
<glyph unicode="W" horiz-adv-x="1734" d="M22 1498h176l212 -1012q38 -214 52 -306h12q50 240 64 306l242 1012h172l246 -1012q28 -126 64 -306h8q2 20 54 306l214 1012h176l-352 -1498h-188l-242 1000q-54 262 -60 294h-8q-10 -54 -34 -160t-30 -134l-238 -1000h-188z" />
<glyph unicode="X" horiz-adv-x="1178" d="M-4 0l492 770l-468 728h200l220 -362q28 -46 81 -136t63 -108h8q26 46 77 129t71 115l220 362h200l-472 -728l496 -770h-196l-236 376q-28 46 -86 143t-74 123h-8q-82 -142 -158 -266l-234 -376h-196z" />
<glyph unicode="Y" horiz-adv-x="1206" d="M-8 1498h192l258 -458q90 -160 158 -282h4q30 54 92 162t68 120l256 458h192l-528 -882v-616h-160v616z" />
<glyph unicode="Z" horiz-adv-x="1240" d="M92 0v118l844 1244h-780v136h976v-120l-848 -1242h868v-136h-1060z" />
<glyph unicode="[" horiz-adv-x="908" d="M300 -260v1956h420v-128h-264v-1702h264v-126h-420z" />
<glyph unicode="\" horiz-adv-x="652" d="M-26 1592h160l548 -1706h-160z" />
<glyph unicode="]" horiz-adv-x="908" d="M188 -134h264v1702h-264v128h420v-1956h-420v126z" />
<glyph unicode="^" horiz-adv-x="1014" d="M32 972l400 674h150l400 -674h-162l-242 426l-70 124l-2 -2l-72 -124l-240 -424h-162z" />
<glyph unicode="_" horiz-adv-x="918" d="M12 -34h898v-126h-898v126z" />
<glyph unicode="`" horiz-adv-x="614" d="M72 1680h222l164 -586h-126z" />
<glyph unicode="a" horiz-adv-x="1126" d="M84 264q0 300 464 372q208 34 276 56v62q0 100 -72 166t-204 66q-96 0 -185 -45t-151 -121l-100 84q80 92 193 150t239 58q432 0 432 -422v-690h-148v176q-32 -86 -132 -149t-236 -63q-178 0 -277 84t-99 216zM240 276q0 -76 64 -129t176 -53q142 0 243 92t101 234v150 q-88 -22 -280 -52q-156 -28 -230 -86t-74 -156z" />
<glyph unicode="b" horiz-adv-x="1192" d="M172 0v1554h152v-670q28 84 118 156t210 72q200 0 326 -153t126 -419q0 -148 -41 -263t-108 -181t-144 -99t-159 -33q-114 0 -202 67t-126 161v-192h-152zM320 540q0 -204 91 -325t221 -121q138 0 227 119t89 327q0 202 -88 322t-228 120q-130 0 -221 -120t-91 -322z" />
<glyph unicode="c" horiz-adv-x="1028" d="M88 538q0 256 130 415t350 159q144 0 247 -83t137 -197l-132 -38q-30 80 -97 134t-155 54q-148 0 -236 -126t-88 -318q0 -204 92 -324t232 -120q94 0 171 61t109 141l132 -42q-42 -120 -153 -205t-259 -85q-214 0 -347 156t-133 418z" />
<glyph unicode="d" horiz-adv-x="1192" d="M88 540q0 266 128 419t324 153q118 0 205 -68t123 -156v666h152v-1554h-148v194q-42 -100 -129 -165t-203 -65q-82 0 -159 33t-144 98t-108 180t-41 265zM244 540q0 -202 88 -324t228 -122q130 0 221 121t91 325q0 202 -91 322t-221 120q-142 0 -229 -121t-87 -321z" />
<glyph unicode="e" horiz-adv-x="1132" d="M88 546q0 252 136 409t352 157q220 0 346 -153t126 -391q0 -28 -4 -80h-800q0 -162 90 -278t250 -116q104 0 184 49t124 131l132 -40q-50 -118 -162 -194t-278 -76q-224 0 -360 160t-136 422zM248 606h644q0 158 -86 267t-230 109q-146 0 -235 -112t-93 -264z" />
<glyph unicode="f" horiz-adv-x="684" d="M48 946v130h184v166q0 158 80 235t220 77h140v-128h-120q-164 0 -164 -200v-150h256v-130h-256v-946h-156v946h-184z" />
<glyph unicode="g" horiz-adv-x="1166" d="M88 556q0 250 124 403t320 153q124 0 203 -64t113 -148v176h152v-950q0 -306 -109 -455t-347 -149q-258 0 -400 196l108 70q124 -140 296 -140q142 0 221 111t79 297v154q-42 -90 -121 -148t-191 -58q-204 0 -326 155t-122 397zM244 558q0 -190 84 -307t220 -117 q138 0 219 112t81 314q0 196 -83 309t-213 113q-140 0 -224 -119t-84 -305z" />
<glyph unicode="h" horiz-adv-x="1158" d="M172 0v1554h152v-652h4q40 86 129 148t203 62q348 0 348 -416v-696h-152v670q0 312 -224 312q-124 0 -216 -102t-92 -242v-638h-152z" />
<glyph unicode="i" horiz-adv-x="550" d="M176 1318v202h196v-202h-196zM200 0v1076h152v-1076h-152z" />
<glyph unicode="j" horiz-adv-x="560" d="M-20 -326h48q180 0 180 248v1154h152v-1162q0 -182 -80 -276t-228 -94h-72v130zM184 1318v202h200v-202h-200z" />
<glyph unicode="k" horiz-adv-x="1036" d="M176 0v1554h156v-1018l468 540h204l-384 -430l428 -646h-188l-340 538l-188 -210v-328h-156z" />
<glyph unicode="l" horiz-adv-x="520" d="M184 0v1554h152v-1554h-152z" />
<glyph unicode="m" horiz-adv-x="1700" d="M160 0v1076h152v-162q28 74 106 136t198 62q118 0 180 -67t96 -173q10 26 32 60t62 78t107 73t147 29q312 0 312 -416v-696h-156v684q0 148 -40 223t-152 75q-116 0 -194 -97t-78 -245v-640h-152v686q0 296 -196 296q-122 0 -195 -92t-73 -240v-650h-156z" />
<glyph unicode="n" horiz-adv-x="1148" d="M160 0v1076h152v-184h2q24 80 118 150t224 70q150 0 247 -94t97 -322v-696h-156v670q0 312 -224 312q-124 0 -214 -100t-90 -240v-642h-156z" />
<glyph unicode="o" horiz-adv-x="1144" d="M88 538q0 246 127 410t357 164q228 0 356 -164t128 -410q0 -104 -27 -202t-82 -183t-152 -137t-223 -52q-124 0 -221 51t-152 136t-83 183t-28 204zM244 538q0 -204 94 -324t234 -120q138 0 233 120t95 324q0 208 -96 326t-232 118q-138 0 -233 -118t-95 -326z" />
<glyph unicode="p" horiz-adv-x="1192" d="M172 -470v1546h148v-194q46 104 133 167t199 63q196 0 324 -156t128 -416q0 -278 -134 -427t-318 -149q-120 0 -204 63t-124 159v-656h-152zM324 540q0 -200 82 -323t226 -123q136 0 226 120t90 326q0 194 -85 318t-231 124q-136 0 -222 -125t-86 -317z" />
<glyph unicode="q" horiz-adv-x="1188" d="M88 540q0 262 127 417t325 155q110 0 197 -62t135 -168v194h148v-1546h-152v656q-40 -96 -126 -159t-202 -63q-184 0 -318 149t-134 427zM244 540q0 -204 89 -325t227 -121q140 0 224 123t84 323q0 196 -86 319t-222 123q-150 0 -233 -124t-83 -318z" />
<glyph unicode="r" horiz-adv-x="750" d="M160 0v1076h148v-156q32 72 106 132t190 60q86 0 152 -28v-140q-72 28 -152 28q-136 0 -212 -102t-76 -270v-600h-156z" />
<glyph unicode="s" horiz-adv-x="1002" d="M72 212l116 68q118 -186 320 -186q122 0 195 44t73 128q0 36 -18 65t-39 48t-75 42t-89 34t-115 37q-70 22 -120 44t-104 59t-83 91t-29 124q0 134 108 218t296 84q132 0 242 -70t158 -164l-104 -68q-42 70 -121 121t-175 51q-122 0 -185 -47t-63 -127q0 -46 24 -83 t73 -64t90 -42t109 -37q58 -18 103 -34t99 -44t90 -59t60 -78t24 -101q0 -128 -113 -215t-311 -87q-144 0 -256 65t-180 183z" />
<glyph unicode="t" horiz-adv-x="730" d="M40 946v130h188v344h156v-344h284v-130h-284v-630q0 -100 38 -142t122 -42h124v-132h-144q-296 0 -296 302v644h-188z" />
<glyph unicode="u" horiz-adv-x="1142" d="M148 378v698h156v-666q0 -316 232 -316q142 0 217 110t75 260v612h152v-1076h-148v174q-16 -66 -99 -138t-233 -72q-154 0 -253 105t-99 309z" />
<glyph unicode="v" horiz-adv-x="1012" d="M16 1076h172l232 -674q16 -50 44 -140t40 -128h4q14 46 44 134t44 134l228 674h172l-396 -1076h-188z" />
<glyph unicode="w" horiz-adv-x="1458" d="M16 1076h172l158 -668q50 -230 58 -266h8q10 48 32 138t30 128l164 668h184l166 -676q8 -34 28 -118t32 -140h8q6 24 58 266l158 668h172l-296 -1076h-194l-162 648q-54 244 -58 264h-8q-48 -226 -58 -264l-162 -648h-194z" />
<glyph unicode="x" horiz-adv-x="982" d="M8 0l388 558l-368 518h184l188 -278q16 -26 44 -69t40 -59h8q12 22 41 66t41 62l186 278h184l-364 -518l388 -558h-184l-210 320q-52 74 -82 122h-8q-10 -18 -80 -122l-212 -320h-184z" />
<glyph unicode="y" horiz-adv-x="1006" d="M16 1076h180l222 -630q50 -140 90 -272h8q30 98 88 272l212 630h176l-464 -1256q-60 -160 -139 -225t-193 -65h-60v128h36q76 0 129 44t95 158l40 126z" />
<glyph unicode="z" horiz-adv-x="972" d="M64 0v104l628 842h-572v130h772v-98l-632 -848h648v-130h-844z" />
<glyph unicode="{" horiz-adv-x="908" d="M134 650v120h56q148 0 148 274v390q0 124 68 193t172 69h158v-128h-132q-48 0 -80 -40t-32 -114v-396q0 -128 -39 -195t-111 -113q150 -78 150 -282v-394q0 -84 32 -126t84 -42h128v-126h-158q-102 0 -171 64t-69 194v404q0 118 -42 183t-106 65h-56z" />
<glyph unicode="|" horiz-adv-x="546" d="M196 -338v2104h156v-2104h-156z" />
<glyph unicode="}" horiz-adv-x="908" d="M172 -134h128q52 0 84 42t32 126v394q0 204 150 282q-72 46 -111 113t-39 195v396q0 74 -31 114t-81 40h-132v128h158q104 0 172 -69t68 -193v-390q0 -274 148 -274h56v-120h-56q-66 0 -107 -66t-41 -182v-404q0 -130 -69 -194t-171 -64h-158v126z" />
<glyph unicode="~" horiz-adv-x="1546" d="M140 628q134 288 388 288q78 0 151 -41t119 -90t106 -90t116 -41q30 0 58 7t48 17t40 29t32 32t27 38t21 36t18 37t14 30l128 -64q-142 -290 -382 -290q-82 0 -156 41t-120 90t-105 90t-115 41q-152 0 -260 -226z" />
<glyph unicode="&#xa1;" horiz-adv-x="632" d="M190 854v230h252v-230h-252zM228 -430l18 1078h142l18 -1078h-178z" />
<glyph unicode="&#xa2;" horiz-adv-x="1026" d="M88 538q0 226 109 387t301 181v158h142v-158q122 -22 201 -99t109 -173l-128 -40q-34 78 -98 133t-150 55q-154 0 -242 -125t-88 -319q0 -200 90 -322t238 -122q90 0 165 60t109 142l132 -42q-38 -102 -124 -180t-214 -104v-166h-142v166q-182 18 -296 172t-114 396z" />
<glyph unicode="&#xa3;" horiz-adv-x="1190" d="M78 676v136h222v348q0 178 113 276t303 98q130 0 226 -65t140 -153l-108 -68q-40 62 -108 106t-148 44q-118 0 -189 -64t-71 -188v-334h460v-136h-460v-246q0 -210 -98 -288q110 20 178 20q60 0 160 -31t168 -31q144 0 256 64l48 -128q-144 -72 -308 -72q-64 0 -187 33 t-185 33q-68 0 -160 -14t-150 -28l-56 -14l-44 116q110 28 165 118t55 214v254h-222z" />
<glyph unicode="&#xa4;" horiz-adv-x="1290" d="M54 294l224 208q-84 104 -84 248q0 150 82 250l-222 206l106 100l216 -206q124 90 270 90q150 0 272 -90l212 204l106 -100l-218 -204q82 -98 82 -250q0 -144 -84 -248l220 -208l-104 -100l-216 206q-116 -90 -270 -90q-152 0 -270 90l-216 -204zM336 750q0 -126 87 -216 t223 -90t224 90t88 216q0 128 -89 216t-223 88t-222 -89t-88 -215z" />
<glyph unicode="&#xa5;" horiz-adv-x="1204" d="M-8 1498h192l248 -378q110 -172 168 -272h4q102 164 166 272l250 378h192l-450 -674h314v-116h-394v-234h394v-116h-394v-358h-160v358h-396v116h396v234h-396v116h316z" />
<glyph unicode="&#xa6;" horiz-adv-x="546" d="M196 -338v822h156v-822h-156zM196 942v824h156v-824h-156z" />
<glyph unicode="&#xa7;" horiz-adv-x="1140" d="M118 94l106 78q46 -66 126 -108t178 -42q244 0 244 150q0 56 -35 88t-119 72l-218 98q-130 58 -192 126t-62 166q0 70 36 133t72 96t90 73q-138 106 -138 220q0 130 103 210t303 80q132 0 239 -58t167 -150l-104 -78q-130 150 -306 150q-124 0 -183 -43t-59 -111 q0 -26 8 -48t29 -43t39 -36t55 -34t58 -30t69 -32t68 -31q82 -40 127 -65t98 -66t76 -91t23 -114q0 -156 -168 -296q84 -76 84 -186q0 -128 -99 -207t-303 -79q-140 0 -249 62t-163 146zM308 730q0 -74 40 -109t152 -87l224 -100q132 106 132 220q0 64 -49 107t-163 99 l-180 92q-76 -56 -116 -105t-40 -117z" />
<glyph unicode="&#xa8;" horiz-adv-x="972" d="M202 1294v204h204v-204h-204zM568 1294v204h202v-204h-202z" />
<glyph unicode="&#xa9;" horiz-adv-x="1784" d="M96 760q0 354 227 578t569 224q346 0 572 -225t226 -577q0 -346 -225 -573t-573 -227q-342 0 -569 224t-227 576zM212 760q0 -300 188 -496t492 -196q300 0 491 193t191 499q0 302 -191 498t-491 196q-298 0 -489 -194t-191 -500zM514 758q0 216 110 349t296 133 q214 0 320 -230l-118 -40q-82 146 -204 146t-193 -98t-71 -260q0 -166 71 -263t193 -97q76 0 135 46t87 114l124 -38q-36 -98 -126 -171t-220 -73q-180 0 -292 131t-112 351z" />
<glyph unicode="&#xaa;" horiz-adv-x="790" d="M64 1106q0 74 34 126t97 79t120 42t136 28t115 23v36q0 64 -47 107t-133 43q-76 0 -138 -39t-88 -77l-80 66q32 46 117 98t187 52q302 0 302 -294v-478h-116v96q-32 -52 -96 -86t-146 -34q-124 0 -194 59t-70 153zM82 672v108h626v-108h-626zM186 1114q0 -48 41 -82 t113 -34q92 0 159 60t67 154v92q-32 -8 -93 -17t-104 -18t-89 -27t-70 -50t-24 -78z" />
<glyph unicode="&#xab;" horiz-adv-x="942" d="M78 508l324 458l114 -76l-268 -382l266 -380l-112 -78zM436 508l324 444l110 -82l-264 -362l264 -364l-110 -80z" />
<glyph unicode="&#xac;" horiz-adv-x="1112" d="M98 644v136h918v-528h-148v392h-770z" />
<glyph unicode="&#xad;" d="M116 674v136h904v-136h-904z" />
<glyph unicode="&#xae;" horiz-adv-x="1784" d="M96 762q0 354 227 577t569 223q346 0 572 -224t226 -576q0 -346 -224 -574t-574 -228q-342 0 -569 224t-227 578zM212 762q0 -302 188 -498t492 -196q300 0 491 196t191 498q0 304 -192 498t-490 194t-489 -193t-191 -499zM610 298v914h354q132 0 203 -74t71 -184 q0 -162 -140 -224q70 -46 96 -172q26 -124 96 -260h-150q-48 86 -82 246q-8 44 -17 68t-35 47t-66 23h-194v-384h-136zM746 794h196q74 0 117 40t43 110q0 62 -41 103t-119 41h-196v-294z" />
<glyph unicode="&#xaf;" horiz-adv-x="1030" d="M0 1514v134h1032v-134h-1032z" />
<glyph unicode="&#xb0;" horiz-adv-x="854" d="M172 1264q0 102 72 175t184 73q106 0 180 -70t74 -178t-74 -177t-180 -69q-108 0 -182 70t-74 176zM276 1264q0 -66 43 -108t109 -42q62 0 105 42t43 108q0 62 -41 106t-107 44q-68 0 -110 -45t-42 -105z" />
<glyph unicode="&#xb1;" d="M92 196v136h954v-136h-954zM92 822v136h400v358h152v-358h402v-136h-402v-352h-152v352h-400z" />
<glyph unicode="&#xb2;" horiz-adv-x="658" d="M58 1456q8 30 12 43t25 55t47 65t75 45t111 22q112 0 184 -65t72 -177q0 -126 -150 -276q-18 -18 -63 -61t-68 -66t-52 -61t-45 -72h378v-100h-520q0 102 59 186t237 254q106 98 106 196q0 68 -37 105t-103 37q-46 0 -79 -18t-52 -53t-23 -47t-12 -40z" />
<glyph unicode="&#xb3;" horiz-adv-x="658" d="M42 976l96 38q64 -124 180 -124q72 0 121 42t49 124q0 74 -54 115t-132 41q-30 0 -78 -4v104q60 -4 74 -4q68 0 112 39t44 107q0 60 -39 98t-101 38q-100 0 -152 -130l-96 32q68 196 252 196q116 0 185 -64t69 -162q0 -132 -110 -194q144 -60 144 -212q0 -124 -80 -195 t-208 -71q-198 0 -276 186z" />
<glyph unicode="&#xb4;" horiz-adv-x="680" d="M146 1330l226 350h202l-292 -350h-136z" />
<glyph unicode="&#xb5;" horiz-adv-x="1166" d="M172 -470v1546h154v-666q0 -316 230 -316q144 0 219 110t75 260v612h154v-1076h-148v174h-2q-28 -90 -115 -150t-211 -60q-134 0 -202 108v-542h-154z" />
<glyph unicode="&#xb6;" horiz-adv-x="1284" d="M118 1108q0 204 107 329t305 125h574v-1708h-130v1566h-210v-1566h-130v808q-64 -20 -130 -20q-164 0 -275 122t-111 344z" />
<glyph unicode="&#xb7;" horiz-adv-x="688" d="M218 600v238h252v-238h-252z" />
<glyph unicode="&#xb8;" horiz-adv-x="604" d="M90 -338q84 -20 130 -20q138 0 138 86q0 88 -194 106l94 194h138l-58 -120q164 -42 164 -182q0 -88 -65 -143t-205 -55q-82 0 -142 20v114z" />
<glyph unicode="&#xb9;" horiz-adv-x="658" d="M110 1454v94h48q88 0 119 25t31 75v38h104v-878h-118v646h-184z" />
<glyph unicode="&#xba;" horiz-adv-x="790" d="M58 1292q0 170 88 284t248 114q158 0 248 -114t90 -284q0 -158 -85 -278t-253 -120q-114 0 -193 62t-111 149t-32 187zM82 672v108h626v-108h-626zM180 1292q0 -136 62 -215t152 -79t153 79t63 215q0 138 -63 216t-153 78t-152 -78t-62 -216z" />
<glyph unicode="&#xbb;" horiz-adv-x="940" d="M72 870l112 82l322 -444l-322 -444l-110 80l264 364zM426 890l116 76l322 -458l-322 -458l-114 80l266 378z" />
<glyph unicode="&#xbc;" horiz-adv-x="1968" d="M170 1344v118h58q98 0 132 26t34 80v50h126v-1008h-144v734h-206zM318 -102l968 1694h152l-964 -1694h-156zM1106 138v108l444 676h122v-660h136v-124h-136v-224h-140v224h-426zM1262 262h270v332v90l-52 -86z" />
<glyph unicode="&#xbd;" horiz-adv-x="1968" d="M170 1344v118h58q98 0 132 26t34 80v50h126v-1008h-144v734h-206zM312 -102l968 1694h152l-964 -1694h-156zM1156 646q8 32 14 50t30 66t54 76t87 53t129 25q130 0 212 -76t82 -206q0 -148 -152 -294q-136 -128 -192 -188t-84 -120h428v-122h-600q0 116 64 212t276 294 q116 108 116 220q0 76 -41 117t-113 41q-142 0 -184 -182z" />
<glyph unicode="&#xbe;" horiz-adv-x="1968" d="M132 834l118 46q74 -140 202 -140q80 0 134 46t54 136q0 82 -59 128t-145 46q-48 0 -96 -4v126q36 -4 90 -4q74 0 123 42t49 118q0 66 -43 108t-111 42q-48 0 -84 -26t-52 -53t-34 -69l-120 40q78 230 294 230q134 0 213 -75t79 -189q0 -144 -120 -218q158 -72 158 -242 q0 -144 -91 -224t-239 -80q-228 0 -320 216zM470 -102l968 1694h152l-964 -1694h-156zM1126 138v108l444 676h122v-660h136v-124h-136v-224h-140v224h-426zM1282 262h270v334v86l-50 -82z" />
<glyph unicode="&#xbf;" horiz-adv-x="1128" d="M148 -60q0 94 37 168t90 124t106 101t90 122t37 161v46h160v-56q0 -102 -37 -182t-89 -132t-104 -100t-89 -113t-37 -143q0 -122 66 -194t184 -72q200 0 298 238l140 -48q-52 -148 -167 -237t-269 -89q-188 0 -302 110t-114 296zM462 856v228h252v-228h-252z" />
<glyph unicode="&#xc0;" horiz-adv-x="1300" d="M-8 0l560 1498h196l560 -1498h-176l-152 432h-660l-152 -432h-176zM328 2004h202l226 -350h-138zM368 560h564l-176 504q-16 46 -51 147t-49 141h-12q-84 -246 -98 -288z" />
<glyph unicode="&#xc1;" horiz-adv-x="1300" d="M-8 0l560 1498h196l560 -1498h-176l-152 432h-660l-152 -432h-176zM368 560h564l-176 504q-16 46 -51 147t-49 141h-12q-84 -246 -98 -288zM506 1654l226 350h202l-292 -350h-136z" />
<glyph unicode="&#xc2;" horiz-adv-x="1300" d="M-8 0l560 1498h196l560 -1498h-176l-152 432h-660l-152 -432h-176zM252 1654l328 332h138l332 -332h-166l-234 244l-232 -244h-166zM368 560h564l-176 504q-16 46 -51 147t-49 141h-12q-84 -246 -98 -288z" />
<glyph unicode="&#xc3;" horiz-adv-x="1300" d="M-8 0l560 1498h196l560 -1498h-176l-152 432h-660l-152 -432h-176zM206 1770q92 180 262 180q74 0 170 -66t138 -66q100 0 168 128l94 -64q-100 -182 -258 -182q-76 0 -169 67t-141 67q-106 0 -170 -130zM368 560h564l-176 504q-16 46 -51 147t-49 141h-12 q-84 -246 -98 -288z" />
<glyph unicode="&#xc4;" horiz-adv-x="1300" d="M-8 0l560 1498h196l560 -1498h-176l-152 432h-660l-152 -432h-176zM334 1730v194h204v-194h-204zM368 560h564l-176 504q-16 46 -51 147t-49 141h-12q-84 -246 -98 -288zM756 1730v194h202v-194h-202z" />
<glyph unicode="&#xc5;" horiz-adv-x="1300" d="M-8 0l560 1498h196l560 -1498h-176l-152 432h-660l-152 -432h-176zM368 560h564l-176 504q-16 46 -51 147t-49 141h-12q-84 -246 -98 -288zM378 1834q0 108 77 184t197 76t197 -76t77 -184q0 -110 -78 -187t-196 -77q-114 0 -194 77t-80 187zM490 1834q0 -68 46 -114 t116 -46t115 45t45 115q0 66 -44 112t-116 46t-117 -47t-45 -111z" />
<glyph unicode="&#xc6;" horiz-adv-x="1910" d="M-8 0l874 1498h946v-136h-688v-520h614v-134h-622v-572h714v-136h-864v432h-552l-244 -432h-178zM490 560h476v788h-18z" />
<glyph unicode="&#xc7;" horiz-adv-x="1324" d="M104 748q0 366 178 576t462 210q176 0 299 -97t185 -231l-136 -48q-134 240 -352 240q-216 0 -344 -177t-128 -473q0 -300 130 -473t342 -173q134 0 234 75t150 185l144 -46q-68 -146 -198 -249t-326 -103q-282 0 -461 209t-179 575zM516 -324q112 -30 188 -30 q58 0 110 26t52 72q0 50 -65 74t-167 20l46 180h140l-32 -116q98 -8 151 -51t53 -115q0 -80 -73 -136t-211 -56q-94 0 -192 30v102z" />
<glyph unicode="&#xc8;" horiz-adv-x="1240" d="M208 0v1498h936v-136h-776v-520h700v-134h-700v-572h792v-136h-952zM380 2004h202l226 -350h-138z" />
<glyph unicode="&#xc9;" horiz-adv-x="1240" d="M208 0v1498h936v-136h-776v-520h700v-134h-700v-572h792v-136h-952zM520 1654l226 350h202l-292 -350h-136z" />
<glyph unicode="&#xca;" horiz-adv-x="1240" d="M208 0v1498h936v-136h-776v-520h700v-134h-700v-572h792v-136h-952zM270 1654l328 332h138l332 -332h-166l-234 244l-232 -244h-166z" />
<glyph unicode="&#xcb;" horiz-adv-x="1240" d="M208 0v1498h936v-136h-776v-520h700v-134h-700v-572h792v-136h-952zM356 1730v194h204v-194h-204zM778 1730v194h202v-194h-202z" />
<glyph unicode="&#xcc;" horiz-adv-x="574" d="M-34 2004h202l226 -350h-138zM208 0v1498h160v-1498h-160z" />
<glyph unicode="&#xcd;" horiz-adv-x="574" d="M148 1654l226 350h202l-292 -350h-136zM208 0v1498h160v-1498h-160z" />
<glyph unicode="&#xce;" horiz-adv-x="574" d="M-112 1654l328 332h138l332 -332h-166l-234 244l-232 -244h-166zM208 0v1498h160v-1498h-160z" />
<glyph unicode="&#xcf;" horiz-adv-x="574" d="M-24 1730v194h204v-194h-204zM208 0v1498h160v-1498h-160zM398 1730v194h202v-194h-202z" />
<glyph unicode="&#xd0;" horiz-adv-x="1402" d="M26 704v128h734v-128h-734zM208 0v1498h404q324 0 510 -191t186 -559q0 -350 -180 -549t-520 -199h-400zM368 136h216q260 0 410 147t150 465q0 322 -150 468t-406 146h-220v-1226z" />
<glyph unicode="&#xd1;" horiz-adv-x="1480" d="M208 0v1498h184l552 -956l180 -316h12q-24 186 -24 424v848h160v-1498h-184l-554 962l-178 308h-8q20 -200 20 -422v-848h-160zM318 1770q92 180 262 180q74 0 170 -66t138 -66q100 0 168 128l94 -64q-100 -182 -258 -182q-76 0 -169 67t-141 67q-106 0 -170 -130z" />
<glyph unicode="&#xd2;" horiz-adv-x="1452" d="M104 748q0 352 170 569t454 217q286 0 453 -216t167 -572q0 -360 -169 -571t-451 -211q-284 0 -454 213t-170 571zM268 748q0 -296 124 -471t336 -175q208 0 332 172t124 472q0 296 -120 474t-336 178q-212 0 -336 -176t-124 -474zM408 2014h202l226 -350h-138z" />
<glyph unicode="&#xd3;" horiz-adv-x="1452" d="M104 748q0 352 170 569t454 217q286 0 453 -216t167 -572q0 -360 -169 -571t-451 -211q-284 0 -454 213t-170 571zM268 748q0 -296 124 -471t336 -175q208 0 332 172t124 472q0 296 -120 474t-336 178q-212 0 -336 -176t-124 -474zM592 1664l226 350h202l-292 -350h-136z " />
<glyph unicode="&#xd4;" horiz-adv-x="1452" d="M104 748q0 352 170 569t454 217q286 0 453 -216t167 -572q0 -360 -169 -571t-451 -211q-284 0 -454 213t-170 571zM268 748q0 -296 124 -471t336 -175q208 0 332 172t124 472q0 296 -120 474t-336 178q-212 0 -336 -176t-124 -474zM328 1664l328 332h138l332 -332h-166 l-234 244l-232 -244h-166z" />
<glyph unicode="&#xd5;" horiz-adv-x="1452" d="M104 748q0 352 170 569t454 217q286 0 453 -216t167 -572q0 -360 -169 -571t-451 -211q-284 0 -454 213t-170 571zM268 748q0 -296 124 -471t336 -175q208 0 332 172t124 472q0 296 -120 474t-336 178q-212 0 -336 -176t-124 -474zM304 1770q92 180 262 180q74 0 170 -66 t138 -66q100 0 168 128l94 -64q-100 -182 -258 -182q-76 0 -169 67t-141 67q-106 0 -170 -130z" />
<glyph unicode="&#xd6;" horiz-adv-x="1452" d="M104 748q0 352 170 569t454 217q286 0 453 -216t167 -572q0 -360 -169 -571t-451 -211q-284 0 -454 213t-170 571zM268 748q0 -296 124 -471t336 -175q208 0 332 172t124 472q0 296 -120 474t-336 178q-212 0 -336 -176t-124 -474zM412 1730v194h204v-194h-204zM834 1730 v194h202v-194h-202z" />
<glyph unicode="&#xd7;" d="M92 382l384 360l-384 362l96 94l380 -368l384 368l94 -92l-382 -364l382 -362l-96 -92l-382 366l-380 -366z" />
<glyph unicode="&#xd8;" horiz-adv-x="1454" d="M104 748q0 352 170 569t454 217q174 0 310 -84l86 168h150l-132 -254q208 -218 208 -618q0 -360 -170 -571t-452 -211q-150 0 -278 66l-88 -172h-150l128 248q-236 210 -236 642zM268 748q0 -326 146 -500l556 1072q-102 78 -242 78q-212 0 -336 -176t-124 -474zM518 158 q94 -56 210 -56q210 0 334 172t124 472q0 296 -120 472z" />
<glyph unicode="&#xd9;" horiz-adv-x="1466" d="M204 542v956h160v-952q0 -224 103 -334t265 -110q166 0 269 113t103 331v952h160v-956q0 -272 -138 -425t-394 -153q-250 0 -389 150t-139 428zM432 2014h202l226 -350h-138z" />
<glyph unicode="&#xda;" horiz-adv-x="1466" d="M204 542v956h160v-952q0 -224 103 -334t265 -110q166 0 269 113t103 331v952h160v-956q0 -272 -138 -425t-394 -153q-250 0 -389 150t-139 428zM590 1664l226 350h202l-292 -350h-136z" />
<glyph unicode="&#xdb;" horiz-adv-x="1466" d="M204 542v956h160v-952q0 -224 103 -334t265 -110q166 0 269 113t103 331v952h160v-956q0 -272 -138 -425t-394 -153q-250 0 -389 150t-139 428zM340 1664l328 332h138l332 -332h-166l-234 244l-232 -244h-166z" />
<glyph unicode="&#xdc;" horiz-adv-x="1466" d="M204 542v956h160v-952q0 -224 103 -334t265 -110q166 0 269 113t103 331v952h160v-956q0 -272 -138 -425t-394 -153q-250 0 -389 150t-139 428zM426 1730v194h204v-194h-204zM848 1730v194h202v-194h-202z" />
<glyph unicode="&#xdd;" horiz-adv-x="1206" d="M-8 1498h192l258 -458q90 -160 158 -282h4q30 54 92 162t68 120l256 458h192l-528 -882v-616h-160v616zM452 1664l226 350h202l-292 -350h-136z" />
<glyph unicode="&#xde;" horiz-adv-x="1224" d="M208 0v1498h160v-250h244q268 0 398 -129t130 -341q0 -240 -150 -358t-396 -118h-226v-302h-160zM368 438h210q396 0 396 340q0 336 -376 336h-230v-676z" />
<glyph unicode="&#xdf;" horiz-adv-x="1332" d="M208 0v1126q0 194 128 301t320 107q202 0 327 -110t125 -292q0 -126 -52 -210t-128 -126v-4q126 -36 215 -136t89 -270q0 -188 -119 -305t-323 -117q-150 0 -286 44l10 140q120 -46 270 -46q118 0 201 79t83 205q0 158 -94 240t-240 82h-130v134h114q100 0 163 79t63 203 q0 118 -77 196t-209 78q-134 0 -212 -75t-78 -207v-1116h-160z" />
<glyph unicode="&#xe0;" horiz-adv-x="1126" d="M84 264q0 300 464 372q208 34 276 56v62q0 100 -72 166t-204 66q-96 0 -185 -45t-151 -121l-100 84q80 92 193 150t239 58q432 0 432 -422v-690h-148v176q-32 -86 -132 -149t-236 -63q-178 0 -277 84t-99 216zM240 276q0 -76 64 -129t176 -53q142 0 243 92t101 234v150 q-88 -22 -280 -52q-156 -28 -230 -86t-74 -156zM270 1616h202l226 -350h-138z" />
<glyph unicode="&#xe1;" horiz-adv-x="1126" d="M84 264q0 300 464 372q208 34 276 56v62q0 100 -72 166t-204 66q-96 0 -185 -45t-151 -121l-100 84q80 92 193 150t239 58q432 0 432 -422v-690h-148v176q-32 -86 -132 -149t-236 -63q-178 0 -277 84t-99 216zM240 276q0 -76 64 -129t176 -53q142 0 243 92t101 234v150 q-88 -22 -280 -52q-156 -28 -230 -86t-74 -156zM382 1276l226 350h202l-292 -350h-136z" />
<glyph unicode="&#xe2;" horiz-adv-x="1126" d="M84 264q0 300 464 372q208 34 276 56v62q0 100 -72 166t-204 66q-96 0 -185 -45t-151 -121l-100 84q80 92 193 150t239 58q432 0 432 -422v-690h-148v176q-32 -86 -132 -149t-236 -63q-178 0 -277 84t-99 216zM142 1276l328 332h138l332 -332h-166l-234 244l-232 -244 h-166zM240 276q0 -76 64 -129t176 -53q142 0 243 92t101 234v150q-88 -22 -280 -52q-156 -28 -230 -86t-74 -156z" />
<glyph unicode="&#xe3;" horiz-adv-x="1126" d="M84 264q0 300 464 372q208 34 276 56v62q0 100 -72 166t-204 66q-96 0 -185 -45t-151 -121l-100 84q80 92 193 150t239 58q432 0 432 -422v-690h-148v176q-32 -86 -132 -149t-236 -63q-178 0 -277 84t-99 216zM132 1372q92 180 262 180q74 0 170 -66t138 -66 q100 0 168 128l94 -64q-100 -182 -258 -182q-76 0 -169 67t-141 67q-106 0 -170 -130zM240 276q0 -76 64 -129t176 -53q142 0 243 92t101 234v150q-88 -22 -280 -52q-156 -28 -230 -86t-74 -156z" />
<glyph unicode="&#xe4;" horiz-adv-x="1126" d="M84 264q0 300 464 372q208 34 276 56v62q0 100 -72 166t-204 66q-96 0 -185 -45t-151 -121l-100 84q80 92 193 150t239 58q432 0 432 -422v-690h-148v176q-32 -86 -132 -149t-236 -63q-178 0 -277 84t-99 216zM228 1344v194h204v-194h-204zM240 276q0 -76 64 -129 t176 -53q142 0 243 92t101 234v150q-88 -22 -280 -52q-156 -28 -230 -86t-74 -156zM650 1344v194h202v-194h-202z" />
<glyph unicode="&#xe5;" horiz-adv-x="1126" d="M84 264q0 300 464 372q208 34 276 56v62q0 100 -72 166t-204 66q-96 0 -185 -45t-151 -121l-100 84q80 92 193 150t239 58q432 0 432 -422v-690h-148v176q-32 -86 -132 -149t-236 -63q-178 0 -277 84t-99 216zM240 276q0 -76 64 -129t176 -53q142 0 243 92t101 234v150 q-88 -22 -280 -52q-156 -28 -230 -86t-74 -156zM266 1494q0 108 77 184t197 76t197 -76t77 -184q0 -110 -78 -187t-196 -77q-114 0 -194 77t-80 187zM378 1494q0 -68 46 -114t116 -46t115 45t45 115q0 66 -44 112t-116 46t-117 -47t-45 -111z" />
<glyph unicode="&#xe6;" horiz-adv-x="1848" d="M84 266q0 300 462 370q240 42 278 56q0 8 -1 32t-1 30q0 94 -69 163t-195 69q-208 0 -348 -166l-100 84q80 94 196 151t252 57q278 0 368 -230q54 106 152 168t224 62q210 0 336 -154t126 -390v-80h-784v-42q14 -142 97 -247t227 -105q106 0 185 52t119 128l132 -40 q-56 -122 -166 -196t-272 -74q-142 0 -246 75t-162 203q-138 -278 -434 -278q-174 0 -275 82t-101 220zM240 276q0 -78 63 -130t173 -52q144 0 245 92t101 236v148q-72 -18 -270 -50q-312 -50 -312 -244zM980 606h628q0 158 -86 267t-220 109q-132 0 -215 -99t-103 -243z " />
<glyph unicode="&#xe7;" horiz-adv-x="1028" d="M88 538q0 256 130 415t350 159q144 0 247 -83t137 -197l-132 -38q-30 80 -97 134t-155 54q-148 0 -236 -126t-88 -318q0 -204 92 -324t232 -120q94 0 171 61t109 141l132 -42q-42 -120 -153 -205t-259 -85q-214 0 -347 156t-133 418zM314 -326q112 -30 188 -30 q58 0 110 26t52 72q0 50 -65 74t-167 20l46 180h140l-32 -116q98 -8 151 -51t53 -115q0 -80 -73 -136t-211 -56q-94 0 -192 30v102z" />
<glyph unicode="&#xe8;" horiz-adv-x="1132" d="M88 546q0 252 136 409t352 157q220 0 346 -153t126 -391q0 -28 -4 -80h-800q0 -162 90 -278t250 -116q104 0 184 49t124 131l132 -40q-50 -118 -162 -194t-278 -76q-224 0 -360 160t-136 422zM248 606h644q0 158 -86 267t-230 109q-146 0 -235 -112t-93 -264zM286 1626 h202l226 -350h-138z" />
<glyph unicode="&#xe9;" horiz-adv-x="1132" d="M88 546q0 252 136 409t352 157q220 0 346 -153t126 -391q0 -28 -4 -80h-800q0 -162 90 -278t250 -116q104 0 184 49t124 131l132 -40q-50 -118 -162 -194t-278 -76q-224 0 -360 160t-136 422zM248 606h644q0 158 -86 267t-230 109q-146 0 -235 -112t-93 -264zM394 1276 l226 350h202l-292 -350h-136z" />
<glyph unicode="&#xea;" horiz-adv-x="1132" d="M88 546q0 252 136 409t352 157q220 0 346 -153t126 -391q0 -28 -4 -80h-800q0 -162 90 -278t250 -116q104 0 184 49t124 131l132 -40q-50 -118 -162 -194t-278 -76q-224 0 -360 160t-136 422zM178 1276l328 332h138l332 -332h-166l-234 244l-232 -244h-166zM248 606h644 q0 158 -86 267t-230 109q-146 0 -235 -112t-93 -264z" />
<glyph unicode="&#xeb;" horiz-adv-x="1132" d="M88 546q0 252 136 409t352 157q220 0 346 -153t126 -391q0 -28 -4 -80h-800q0 -162 90 -278t250 -116q104 0 184 49t124 131l132 -40q-50 -118 -162 -194t-278 -76q-224 0 -360 160t-136 422zM248 606h644q0 158 -86 267t-230 109q-146 0 -235 -112t-93 -264zM258 1344 v194h204v-194h-204zM680 1344v194h202v-194h-202z" />
<glyph unicode="&#xec;" horiz-adv-x="506" d="M-56 1626h202l226 -350h-138zM176 0v1076h154v-1076h-154z" />
<glyph unicode="&#xed;" horiz-adv-x="506" d="M116 1276l226 350h202l-292 -350h-136zM176 0v1076h154v-1076h-154z" />
<glyph unicode="&#xee;" horiz-adv-x="506" d="M-146 1276l328 332h138l332 -332h-166l-234 244l-232 -244h-166zM176 0v1076h154v-1076h-154z" />
<glyph unicode="&#xef;" horiz-adv-x="506" d="M-60 1344v194h204v-194h-204zM176 0v1076h154v-1076h-154zM362 1344v194h202v-194h-202z" />
<glyph unicode="&#xf0;" horiz-adv-x="1142" d="M88 484q0 242 132 383t344 141q112 0 195 -52t119 -122q-110 526 -574 600l52 122q150 -24 271 -89t220 -181t153 -306t54 -442t-128 -413t-360 -161q-220 0 -349 149t-129 371zM244 490q0 -174 88 -285t238 -111q144 0 230 108t86 290q0 174 -87 279t-227 105 q-142 0 -235 -102t-93 -284zM316 1186l566 410l88 -100l-564 -408z" />
<glyph unicode="&#xf1;" horiz-adv-x="1148" d="M150 1372q92 180 262 180q74 0 170 -66t138 -66q100 0 168 128l94 -64q-100 -182 -258 -182q-76 0 -169 67t-141 67q-106 0 -170 -130zM160 0v1076h152v-184h2q24 80 118 150t224 70q150 0 247 -94t97 -322v-696h-156v670q0 312 -224 312q-124 0 -214 -100t-90 -240v-642 h-156z" />
<glyph unicode="&#xf2;" horiz-adv-x="1144" d="M88 538q0 246 127 410t357 164q228 0 356 -164t128 -410q0 -104 -27 -202t-82 -183t-152 -137t-223 -52q-124 0 -221 51t-152 136t-83 183t-28 204zM244 538q0 -204 94 -324t234 -120q138 0 233 120t95 324q0 208 -96 326t-232 118q-138 0 -233 -118t-95 -326zM286 1626 h202l226 -350h-138z" />
<glyph unicode="&#xf3;" horiz-adv-x="1144" d="M88 538q0 246 127 410t357 164q228 0 356 -164t128 -410q0 -104 -27 -202t-82 -183t-152 -137t-223 -52q-124 0 -221 51t-152 136t-83 183t-28 204zM244 538q0 -204 94 -324t234 -120q138 0 233 120t95 324q0 208 -96 326t-232 118q-138 0 -233 -118t-95 -326zM424 1276 l226 350h202l-292 -350h-136z" />
<glyph unicode="&#xf4;" horiz-adv-x="1144" d="M88 538q0 246 127 410t357 164q228 0 356 -164t128 -410q0 -104 -27 -202t-82 -183t-152 -137t-223 -52q-124 0 -221 51t-152 136t-83 183t-28 204zM174 1276l328 332h138l332 -332h-166l-234 244l-232 -244h-166zM244 538q0 -204 94 -324t234 -120q138 0 233 120t95 324 q0 208 -96 326t-232 118q-138 0 -233 -118t-95 -326z" />
<glyph unicode="&#xf5;" horiz-adv-x="1144" d="M88 538q0 246 127 410t357 164q228 0 356 -164t128 -410q0 -104 -27 -202t-82 -183t-152 -137t-223 -52q-124 0 -221 51t-152 136t-83 183t-28 204zM140 1372q92 180 262 180q74 0 170 -66t138 -66q100 0 168 128l94 -64q-100 -182 -258 -182q-76 0 -169 67t-141 67 q-106 0 -170 -130zM244 538q0 -204 94 -324t234 -120q138 0 233 120t95 324q0 208 -96 326t-232 118q-138 0 -233 -118t-95 -326z" />
<glyph unicode="&#xf6;" horiz-adv-x="1144" d="M88 538q0 246 127 410t357 164q228 0 356 -164t128 -410q0 -104 -27 -202t-82 -183t-152 -137t-223 -52q-124 0 -221 51t-152 136t-83 183t-28 204zM244 538q0 -204 94 -324t234 -120q138 0 233 120t95 324q0 208 -96 326t-232 118q-138 0 -233 -118t-95 -326zM260 1344 v194h204v-194h-204zM682 1344v194h202v-194h-202z" />
<glyph unicode="&#xf7;" d="M56 674v136h1024v-136h-1024zM456 256v218h224v-218h-224zM456 1010v216h224v-216h-224z" />
<glyph unicode="&#xf8;" horiz-adv-x="1142" d="M88 538q0 246 127 410t357 164q128 0 222 -54l74 144h130l-110 -214q166 -158 166 -450q0 -104 -27 -202t-82 -183t-151 -137t-222 -52q-112 0 -206 44l-68 -132h-130l100 196q-88 78 -134 203t-46 263zM244 538q0 -204 96 -328l390 722q-72 50 -158 50q-138 0 -233 -118 t-95 -326zM430 132q66 -38 142 -38q138 0 232 120t94 324q0 190 -82 310z" />
<glyph unicode="&#xf9;" horiz-adv-x="1142" d="M148 378v698h156v-666q0 -316 232 -316q142 0 217 110t75 260v612h152v-1076h-148v174q-16 -66 -99 -138t-233 -72q-154 0 -253 105t-99 309zM278 1626h202l226 -350h-138z" />
<glyph unicode="&#xfa;" horiz-adv-x="1142" d="M148 378v698h156v-666q0 -316 232 -316q142 0 217 110t75 260v612h152v-1076h-148v174q-16 -66 -99 -138t-233 -72q-154 0 -253 105t-99 309zM428 1276l226 350h202l-292 -350h-136z" />
<glyph unicode="&#xfb;" horiz-adv-x="1142" d="M148 378v698h156v-666q0 -316 232 -316q142 0 217 110t75 260v612h152v-1076h-148v174q-16 -66 -99 -138t-233 -72q-154 0 -253 105t-99 309zM190 1276l328 332h138l332 -332h-166l-234 244l-232 -244h-166z" />
<glyph unicode="&#xfc;" horiz-adv-x="1142" d="M148 378v698h156v-666q0 -316 232 -316q142 0 217 110t75 260v612h152v-1076h-148v174q-16 -66 -99 -138t-233 -72q-154 0 -253 105t-99 309zM270 1344v194h204v-194h-204zM692 1344v194h202v-194h-202z" />
<glyph unicode="&#xfd;" horiz-adv-x="1006" d="M16 1076h180l222 -630q50 -140 90 -272h8q30 98 88 272l212 630h176l-464 -1256q-60 -160 -139 -225t-193 -65h-60v128h36q76 0 129 44t95 158l40 126zM330 1276l226 350h202l-292 -350h-136z" />
<glyph unicode="&#xfe;" horiz-adv-x="1198" d="M178 -470v2024h154v-674q32 102 129 167t191 65q210 0 334 -154t124 -420q0 -284 -136 -429t-324 -145q-112 0 -198 69t-120 157v-660h-154zM328 538q0 -200 89 -322t215 -122q148 0 235 119t87 325t-86 325t-234 119q-122 0 -214 -122t-92 -322z" />
<glyph unicode="&#xff;" horiz-adv-x="1006" d="M16 1076h180l222 -630q50 -140 90 -272h8q30 98 88 272l212 630h176l-464 -1256q-60 -160 -139 -225t-193 -65h-60v128h36q76 0 129 44t95 158l40 126zM176 1344v194h204v-194h-204zM598 1344v194h202v-194h-202z" />
<glyph unicode="&#x152;" horiz-adv-x="1944" d="M104 748q0 358 180 572t464 214q120 0 212 -36h886v-136h-732v-520h658v-134h-658v-572h750v-136h-900q-96 -36 -216 -36q-288 0 -466 212t-178 572zM268 748q0 -298 134 -473t346 -175q124 0 206 56v1180q-86 62 -206 62q-218 0 -349 -178t-131 -472z" />
<glyph unicode="&#x153;" horiz-adv-x="1942" d="M88 538q0 246 127 410t357 164q228 0 356 -164t128 -410q0 -104 -27 -202t-82 -183t-152 -137t-223 -52q-124 0 -221 51t-152 136t-83 183t-28 204zM244 538q0 -204 94 -324t234 -120q138 0 233 120t95 324q0 208 -96 326t-232 118q-138 0 -233 -118t-95 -326zM898 546 q0 252 136 409t352 157q220 0 346 -153t126 -391q0 -28 -4 -80h-800q0 -162 90 -278t250 -116q104 0 184 49t124 131l132 -40q-50 -118 -162 -194t-278 -76q-224 0 -360 160t-136 422zM1058 606h644q0 158 -86 267t-230 109q-146 0 -235 -112t-93 -264z" />
<glyph unicode="&#x178;" horiz-adv-x="1206" d="M-8 1498h192l258 -458q90 -160 158 -282h4q30 54 92 162t68 120l256 458h192l-528 -882v-616h-160v616zM288 1730v194h204v-194h-204zM710 1730v194h202v-194h-202z" />
<glyph unicode="&#x2c6;" horiz-adv-x="948" d="M132 1402l264 304h148l268 -304h-164l-178 214l-174 -214h-164z" />
<glyph unicode="&#x2dc;" horiz-adv-x="982" d="M90 1524q86 166 242 166q72 0 163 -61t137 -61q50 0 97 33t73 85l90 -68q-94 -168 -256 -168q-72 0 -164 61t-134 61q-96 0 -156 -116z" />
<glyph unicode="&#x2000;" horiz-adv-x="1047" />
<glyph unicode="&#x2001;" horiz-adv-x="2094" />
<glyph unicode="&#x2002;" horiz-adv-x="1047" />
<glyph unicode="&#x2003;" horiz-adv-x="2094" />
<glyph unicode="&#x2004;" horiz-adv-x="698" />
<glyph unicode="&#x2005;" horiz-adv-x="523" />
<glyph unicode="&#x2006;" horiz-adv-x="349" />
<glyph unicode="&#x2007;" horiz-adv-x="349" />
<glyph unicode="&#x2008;" horiz-adv-x="261" />
<glyph unicode="&#x2009;" horiz-adv-x="418" />
<glyph unicode="&#x200a;" horiz-adv-x="116" />
<glyph unicode="&#x2010;" d="M96 674v136h944v-136h-944z" />
<glyph unicode="&#x2011;" d="M96 674v136h944v-136h-944z" />
<glyph unicode="&#x2012;" d="M96 674v136h944v-136h-944z" />
<glyph unicode="&#x2013;" horiz-adv-x="1046" d="M84 656v136h878v-136h-878z" />
<glyph unicode="&#x2014;" horiz-adv-x="1978" d="M0 656v136h1978v-136h-1978z" />
<glyph unicode="&#x2018;" horiz-adv-x="704" d="M228 1114v172q0 318 196 482l90 -76q-76 -72 -106 -151t-30 -197h118v-230h-268z" />
<glyph unicode="&#x2019;" horiz-adv-x="704" d="M190 1102q76 72 106 151t30 197h-118v230h268v-172q0 -318 -196 -482z" />
<glyph unicode="&#x201a;" horiz-adv-x="704" d="M190 -340q76 72 106 151t30 197h-118v230h268v-172q0 -318 -196 -482z" />
<glyph unicode="&#x201c;" horiz-adv-x="1040" d="M162 1114v172q0 334 196 498l90 -76q-136 -126 -136 -364h118v-230h-268zM622 1114v172q0 318 196 482l90 -76q-76 -72 -106 -151t-30 -197h118v-230h-268z" />
<glyph unicode="&#x201d;" horiz-adv-x="1040" d="M132 1102q76 72 106 151t30 197h-118v230h268v-172q0 -318 -196 -482zM594 1086q80 74 108 157t28 207h-118v230h268v-172q0 -334 -196 -498z" />
<glyph unicode="&#x201e;" horiz-adv-x="1040" d="M132 -340q76 72 106 151t30 197h-118v230h268v-172q0 -318 -196 -482zM592 -356q80 74 108 157t28 207h-118v230h268v-172q0 -334 -196 -498z" />
<glyph unicode="&#x2022;" horiz-adv-x="1024" d="M292 502v436h440v-436h-440z" />
<glyph unicode="&#x2026;" horiz-adv-x="2064" d="M218 600v238h252v-238h-252zM906 600v238h252v-238h-252zM1594 600v238h252v-238h-252z" />
<glyph unicode="&#x202f;" horiz-adv-x="418" />
<glyph unicode="&#x2039;" horiz-adv-x="734" d="M150 504l344 470l114 -76l-288 -392l286 -390l-112 -78z" />
<glyph unicode="&#x203a;" horiz-adv-x="734" d="M126 900l114 76l344 -468l-344 -468l-112 78l286 390z" />
<glyph unicode="&#x205f;" horiz-adv-x="523" />
<glyph unicode="&#x20ac;" horiz-adv-x="1430" d="M38 534v116h178q-6 54 -6 98q0 46 4 110h-174v116h188q46 262 216 411t398 149q180 0 305 -96t183 -232l-132 -48q-140 242 -358 242q-156 0 -282 -116t-164 -310h586v-116h-602q-4 -32 -4 -110q0 -44 6 -98h598v-116h-580q34 -200 155 -317t289 -117q134 0 237 77 t149 185l146 -46q-62 -144 -200 -249t-332 -105q-232 0 -399 153t-211 419h-194z" />
<glyph unicode="&#x2122;" horiz-adv-x="1654" d="M12 1558v110h624v-110h-250v-750h-124v750h-250zM754 808v860h144l184 -454l66 -172l66 172l184 454h146v-860h-124v484q0 50 4 146l-224 -568h-102l-226 570q6 -74 6 -148v-484h-124z" />
<glyph unicode="&#x25fc;" horiz-adv-x="1080" d="M0 0v1080h1080v-1080h-1080z" />
<glyph unicode="&#xfb01;" horiz-adv-x="980" d="M48 946v130h186v166q0 312 298 312h130v-128h-110q-164 0 -164 -200v-150h394v-1076h-154v946h-240v-946h-154v946h-186z" />
<glyph unicode="&#xfb02;" horiz-adv-x="1040" d="M48 946v130h186v168q0 158 79 234t219 76h110v-128h-90q-164 0 -164 -198v-152h314v478h154v-1554h-154v946h-314v-946h-154v946h-186z" />
<glyph unicode="&#xfb03;" horiz-adv-x="1420" d="M48 946v130h186v158q0 320 298 320h130v-128h-110q-164 0 -164 -208v-142h286v158q0 162 79 241t219 79h130v-128h-110q-164 0 -164 -208v-142h394v-1076h-154v946h-240v-946h-154v946h-286v-946h-154v946h-186z" />
<glyph unicode="&#xfb04;" horiz-adv-x="1480" d="M48 946v130h186v162q0 162 79 239t219 77h130v-128h-110q-164 0 -164 -204v-146h286v162q0 162 79 239t219 77h110v-128h-90q-164 0 -164 -204v-146h314v478h154v-1554h-154v946h-314v-946h-154v946h-286v-946h-154v946h-186z" />
</font>
</defs>
</svg>
